<?xml version="1.0" encoding="UTF-8"?>
<svg version="1.1" viewBox="0 0 2048 2048" width="512" height="512" xmlns="http://www.w3.org/2000/svg">
<path transform="translate(1530,626)" fill="#2563EB" d="m0 0h15l14 4 19 10 17 12 11 9 14 12 13 12 7 6 6 7 22 22 7 8 12 13 9 10 18 22 11 13 13 17 12 15 12 16 10 14 8 11v2l-5-2-17-13-10-9-11-9-10-9-11-9-14-13-11-9-15-14-8-7-11-10-11-9-12-11-11-9-14-12-14-11-17-13-18-12-16-9-14-5-11-1-20 4-33 11-32 13-19 8-15 7-33 16-52 26-12 7-12 6-23 13-27 15-40 24-24 15-39 26-18 13-11 8-13 10-16 13-14 12-15 14-17 16-16 16-1 2h-2v2h-2l-2 4-10 10-1 2h-2l-2 4-14 15-7 8-11 13-9 11-14 17-13 17-9 11-14 19-8 11-11 15-9 13-14 20-23 35-9 14-15 24-12 20-11 18-6 11-9 16-13 24-12 23-8 16-12 26-4 15 2 16 5 16 6 15 13 27 14 24 15 24 18 27 11 16 26 36 10 13 12 16 10 13 9 11 8 11v2l-4-2-14-12-12-11-11-11-2-1v-2h-2l-7-8-15-15-7-8-9-10-12-14-11-13-13-17-10-13-12-17-14-21-13-22-8-15-9-21-5-18-1-4v-7l-17 9-16 8-31 14-24 9-19 6-18 4-15 2 2-5 11-10 14-10 20-12 23-12 17-8 25-9 13-3h13l4 1 3-12 7-20 13-31 14-30 17-34 12-22 13-23 16-27 12-20 14-22 18-27 16-23 10-14 24-32 13-16 8-10 11-14 12-13 9-11 14-15 7-8h2l2-4 40-40 8-7 12-11 11-9 16-13 26-20 21-16 14-10 19-14 24-16 14-10 14-9 20-13 21-13 20-12 38-22 28-15 29-15 27-13 25-11 27-11 21-8 32-10 28-7 18-3z"/>
<path transform="translate(1789,895)" fill="#2563EB" d="m0 0h28l13 4 9 5 7 6 6 9 4 11 1 6v21l-3 19-7 24-8 20-12 26-13 23-9 16-12 18-4 7-14 20-12 17-10 13-13 17-11 13-11 14-8 9-9 11-13 14-7 8-11 12-1 2h-2l-2 4-12 12-1 2h-2l-2 4-58 58h-2v2l-8 7-9 9-8 7-7 7-8 7-11 10-8 7-10 9-8 7-14 12-15 13-11 9-14 12-33 27-18 14-16 13-19 14-17 13-19 14-18 13-17 12-23 16-27 18-11 7-19 12-21 13-24 14-36 20-19 10-28 13-25 11-21 8-27 8-17 4-18 3h-19l-14-3-11-6-8-9-5-12-1-5v-16l4-20 7-21 13-29 14-26 17-28 10-16 9-13 7-10 39-54 8-10 9-12 5-6 1 2-7 11-8 12-7 10-18 27-10 16-18 30-6 12-10 19-12 26-8 21-5 19-2 16 1 14 4 11 8 9 9 4 11 2h16l22-4 26-8 28-11 24-11 19-10 21-11 27-16 23-14 25-16 28-19 20-14 18-13 19-14 13-10 18-14 14-11 16-13 10-8 14-12 10-8 30-26 15-14 8-7 13-12 10-9 12-12h2v-2h2v-2h2v-2l8-7 43-43 1-2h2v-2h2l2-4h2l2-4 25-25 7-8 9-9 1-2h2l2-4 13-13 7-8 6-7h2l2-4 8-8 8-10h2l2-4 13-14 7-8 12-14 9-10 18-22 10-12 11-14 14-18 14-19 12-17 13-20 9-15 11-21 7-17 4-16v-16l-5-10-6-5-11-3h-20l-21 4-23 7-33 13-26 12-17 8-18 10-14 7-24 14-11 6-15 9-23 14-17 11-19 12-43 29-13 9-16 11-36 26-38 28-13 10-12 9-18 14-16 13-9 7-16 13-10 8-12 10-10 8-15 13-13 11-14 11-3 1 2-4 12-11 11-9 12-12 8-7 20-18 13-12 8-7 12-11 11-9 7-7 8-7 14-12 11-9 15-13 11-9 15-13 14-11 17-14 14-11 15-12 13-10 21-16 13-10 36-26 19-13 10-7 15-10 23-15 40-24 24-13 27-14 30-13 30-10 23-5z"/>
<path transform="translate(1859,171)" fill="#2563EB" d="m0 0h13l3 1-1 3-33 17-25 12-30 13-49 20-51 20-40 15-75 28-20 7-91 33-29 10-56 20-129 46-77 28-29 10-38 14-29 11-27 10-39 15-38 15-44 18-28 12-18 8-33 16-20 11-17 12-8 8-8 10-9 11-14 17-11 14-9 10-7 9-12 14-11 13-9 11-26 30-11 13-13 14-9 11-6 7h-2l-2 4-8 8-7 8-31 33-29 29-8 7-7 6h-2l2-5 8-11 19-28 11-16 17-25 9-13 13-19 24-34 39-54 14-19 26-34 11-14 18-22 11-12 13-13 14-10 20-12 25-14 42-21 33-15 45-20 33-14 36-15 42-17 30-12 46-18 79-30 35-13 58-21 25-9 88-31 71-24 36-12 62-20 56-17 34-10 43-12 38-10 30-7 31-6z"/>
<path transform="translate(509,897)" fill="#2563EB" d="m0 0h6l6 5 4 14 4 26 3 32 3 44 3 73 3 144 1 150v87l-2 212 18 1 15 3 12 6 11 11 10 13 15 23 15 26 12 24 10 25 5 18 1 5v12l-4 8-8 4-22 5-31 4-40 3-25 1h-71l-37-2-30-4-14-4-6-3-4-4-1-11 3-18 6-23 12-37 12-31 7-17h2l-1 11-4 20-4 28-2 21v32l3 10 4 2 10 1h71l46-2 41-3 26-3 19-4 6-3v-8l-6-17-9-19-13-23-13-20-9-13-10-13-6-5-9-3-36-6-61-8-29-3v-2l16-3 27-3 33-2h15l-2-240-2-127-3-126-2-64-4-86-3-42-3-24-3-13-1-2-6 1-9 7-7 8-10 15-10 17-8 14-7 14-9 17-2 10v50l2 66 9 229 3 98 1 40v128h-2l-3-9-6-34-8-61-7-70-8-93-7-97-10-153-5-77-2-22v-9l6-17 12-22 14-22 11-15 11-14 16-20h2l2-4 20-20 15-11 12-6z"/>
<path transform="translate(371,1240)" fill="#2563EB" d="m0 0h2l-1 5-8 13-17 28-9 16-10 17-14 24-14 25-12 21-7 12-6 12-10 18-7 14-10 19-11 23-8 19-4 13 1 5 11 4 14 2h41l26-3 31-6 26-7 7-1-4 3-34 14-30 13-42 17-25 9-23 7-14 3-16 1-12-2-6-4-4-5-1-10 3-15 5-16 10-24 16-32 14-24 11-19 15-24 10-15 15-22 12-17 14-19 20-26 11-14 18-22 10-11 7-8z"/>
<path transform="translate(1835,238)" fill="#2563EB" d="m0 0h2l-1 7-13 33-11 24-10 19-14 27-12 21-18 30-14 22-15 22-10 14-8 11-9 11-7 9h-2l-2 4-15 16-12 12-8 7-10 9-14 11-13 10-15 10-14 8-17 8-4-1 10-14 12-15 11-14 12-16 13-16 9-12 21-27 13-17 28-36 10-13 8-10 30-39 12-15 12-16 13-16 12-16 11-14 10-13 7-9 8-11z"/>
</svg>
